<svg xmlns="http://www.w3.org/2000/svg" version="1.1" xmlns:xlink="http://www.w3.org/1999/xlink" xmlns:svgjs="http://svgjs.dev/svgjs" width="2000" height="368" viewBox="0 0 2000 368"><g transform="matrix(1,0,0,1,-1.2121212121212466,-0.290522580956889)"><svg viewBox="0 0 396 73" data-background-color="#fdfeff" preserveAspectRatio="xMidYMid meet" height="368" width="2000" xmlns="http://www.w3.org/2000/svg" xmlns:xlink="http://www.w3.org/1999/xlink"><g id="tight-bounds" transform="matrix(1,0,0,1,0.2400000000000091,0.05763083807025282)"><svg viewBox="0 0 395.52 72.88473832385951" height="72.88473832385951" width="395.52"><g><svg viewBox="0 0 519.933408451108 95.81111048946039" height="72.88473832385951" width="395.52"><g transform="matrix(1,0,0,1,124.41340845110804,17.61626497205566)"><svg viewBox="0 0 395.52 60.57858054534907" height="60.57858054534907" width="395.52"><g id="textblocktransform"><svg viewBox="0 0 395.52 60.57858054534907" height="60.57858054534907" width="395.52" id="textblock"><g><svg viewBox="0 0 395.52 60.57858054534907" height="60.57858054534907" width="395.52"><g transform="matrix(1,0,0,1,0,0)"><svg width="395.52" viewBox="0.9 -38.9 258.53000000000003 39.6" height="60.57858054534907" data-palette-color="#3388e8"><path d="M31.9-8.2L34.1-8.2 34.1 0 18.3 0 18.3-8.2 20.4-8.2 20.4-16.4Q20.4-18.05 19.7-18.82 19-19.6 17.6-19.6L17.6-19.6Q14.6-19.6 14.6-16.4L14.6-16.4 14.6-8.2 16.7-8.2 16.7 0 0.9 0 0.9-8.2 3.1-8.2 3.1-30.7 0.9-30.7 0.9-38.9 14.6-38.9 14.6-23.9Q16.45-26.2 18.6-27.35 20.75-28.5 23.6-28.5L23.6-28.5Q27.75-28.5 29.83-25.9 31.9-23.3 31.9-18.75L31.9-18.75 31.9-8.2ZM50.6 0.7Q43.5 0.7 39.5-3.03 35.5-6.75 35.5-13.9L35.5-13.9Q35.5-21.05 39.5-24.78 43.5-28.5 50.6-28.5L50.6-28.5Q57.8-28.5 61.75-24.73 65.7-20.95 65.7-13.9L65.7-13.9Q65.7-6.75 61.7-3.03 57.7 0.7 50.6 0.7L50.6 0.7ZM50.6-8.2Q52.05-8.2 52.77-8.97 53.5-9.75 53.5-11.4L53.5-11.4 53.5-16.4Q53.5-18.05 52.77-18.82 52.05-19.6 50.6-19.6L50.6-19.6Q49.15-19.6 48.42-18.82 47.7-18.05 47.7-16.4L47.7-16.4 47.7-11.4Q47.7-9.75 48.42-8.97 49.15-8.2 50.6-8.2L50.6-8.2ZM79.65 0.7Q74.35 0.7 71.67-1.88 69-4.45 69-10.55L69-10.55 69-19.6 66.8-19.6 66.8-27.8Q68.7-27.8 69.65-28.78 70.6-29.75 70.6-31.45L70.6-31.45 70.6-33.7 81.2-33.7 81.2-27.8 87.95-27.8 87.95-19.6 81.2-19.6 81.2-11.4Q81.2-9.75 81.92-8.97 82.65-8.2 84.1-8.2L84.1-8.2Q86-8.2 88.25-8.65L88.25-8.65 88.25-0.8Q86.85-0.25 84.47 0.23 82.1 0.7 79.65 0.7L79.65 0.7ZM104.74 0.7Q97.64 0.7 93.64-3.03 89.64-6.75 89.64-13.9L89.64-13.9Q89.64-21.05 93.64-24.78 97.64-28.5 104.74-28.5L104.74-28.5Q111.79-28.5 114.92-24.83 118.04-21.15 118.04-15.7L118.04-15.7 118.04-12.1 101.84-12.1 101.84-11.8Q101.84-9.95 102.94-9.08 104.04-8.2 106.59-8.2L106.59-8.2Q109.64-8.2 112.39-8.65 115.14-9.1 117.19-9.8L117.19-9.8 117.19-1.8Q115.44-0.85 112.07-0.08 108.69 0.7 104.74 0.7L104.74 0.7ZM101.84-17.6L107.64-17.6 107.64-18.2Q107.64-19.9 106.92-20.65 106.19-21.4 104.74-21.4L104.74-21.4Q103.29-21.4 102.57-20.63 101.84-19.85 101.84-18.2L101.84-18.2 101.84-17.6ZM135.44 0.05L119.54 0.05 119.54-8.2 121.74-8.2 121.74-30.7 119.54-30.7 119.54-38.9 133.24-38.9 133.24-8.2 135.44-8.2 135.44 0.05ZM145.94 0L138.14 0 138.14-8.2 145.94-8.2 145.94 0ZM164.19 0.7Q157.03 0.7 153.03-3.03 149.03-6.75 149.03-13.9L149.03-13.9Q149.03-21.05 153.03-24.78 157.03-28.5 164.14-28.5L164.14-28.5Q167.59-28.5 170.74-27.55 173.89-26.6 175.64-25.4L175.64-25.4 175.64-15.5 167.03-15.5 167.03-16.4Q167.03-18.05 166.34-18.82 165.64-19.6 164.14-19.6L164.14-19.6Q161.24-19.6 161.24-16.4L161.24-16.4 161.24-12.1Q161.24-8.2 165.69-8.2L165.69-8.2Q169.84-8.2 175.34-9.1L175.34-9.1 175.34-1.25Q173.64-0.5 170.56 0.1 167.49 0.7 164.19 0.7L164.19 0.7ZM192.23 0.7Q185.13 0.7 181.13-3.03 177.13-6.75 177.13-13.9L177.13-13.9Q177.13-21.05 181.13-24.78 185.13-28.5 192.23-28.5L192.23-28.5Q199.43-28.5 203.38-24.73 207.33-20.95 207.33-13.9L207.33-13.9Q207.33-6.75 203.33-3.03 199.33 0.7 192.23 0.7L192.23 0.7ZM192.23-8.2Q193.68-8.2 194.41-8.97 195.13-9.75 195.13-11.4L195.13-11.4 195.13-16.4Q195.13-18.05 194.41-18.82 193.68-19.6 192.23-19.6L192.23-19.6Q190.78-19.6 190.06-18.82 189.33-18.05 189.33-16.4L189.33-16.4 189.33-11.4Q189.33-9.75 190.06-8.97 190.78-8.2 192.23-8.2L192.23-8.2ZM257.23-8.2L259.43-8.2 259.43 0 243.63 0 243.63-8.2 245.73-8.2 245.73-16.4Q245.73-18.05 245.03-18.82 244.33-19.6 242.93-19.6L242.93-19.6Q239.93-19.6 239.93-16.4L239.93-16.4 239.93-8.2 242.03-8.2 242.03 0 226.33 0 226.33-8.2 228.43-8.2 228.43-16.4Q228.43-18.05 227.73-18.82 227.03-19.6 225.63-19.6L225.63-19.6Q222.63-19.6 222.63-16.4L222.63-16.4 222.63-8.2 224.73-8.2 224.73 0 208.93 0 208.93-8.2 211.13-8.2 211.13-19.6 208.93-19.6 208.93-27.8 222.63-27.8 222.63-23.9Q226.23-28.5 231.63-28.5L231.63-28.5Q234.68-28.5 236.61-27.08 238.53-25.65 239.33-23.05L239.33-23.05Q241.13-25.65 243.46-27.05 245.78-28.45 248.93-28.45L248.93-28.45Q253.08-28.45 255.16-25.85 257.23-23.25 257.23-18.7L257.23-18.7 257.23-8.2Z" opacity="1" transform="matrix(1,0,0,1,0,0)" fill="#3388e8" class="wordmark-text-0" data-fill-palette-color="primary" id="text-0"></path></svg></g></svg></g></svg></g></svg></g><g><svg viewBox="0 0 95.81111048946039 95.81111048946039" height="95.81111048946039" width="95.81111048946039"><g><svg></svg></g><g id="icon-0"><svg viewBox="0 0 95.81111048946039 95.81111048946039" height="95.81111048946039" width="95.81111048946039"><g><path d="M0 47.906c0-26.458 21.448-47.906 47.906-47.906 26.458 0 47.906 21.448 47.905 47.906 0 26.458-21.448 47.906-47.905 47.905-26.458 0-47.906-21.448-47.906-47.905zM47.906 90.348c23.44 0 42.443-19.002 42.442-42.442 0-23.44-19.002-42.443-42.442-42.443-23.44 0-42.443 19.002-42.443 42.443 0 23.44 19.002 42.443 42.443 42.442z" data-fill-palette-color="accent" fill="#364f40" stroke="transparent"></path></g><g transform="matrix(1,0,0,1,21.594896489638845,31.87683869205817)"><svg viewBox="0 0 52.6213175101827 32.05743310534405" height="32.05743310534405" width="52.6213175101827"><g><svg version="1.0" xmlns="http://www.w3.org/2000/svg" xmlns:xlink="http://www.w3.org/1999/xlink" x="0" y="0" viewBox="0 -5.035329135525938e-7 100 60.921000503532916" enable-background="new 0 0 100 60.921" xml:space="preserve" id="dxe-0" width="52.6213175101827" height="32.05743310534405" class="icon-dxe-0" data-fill-palette-color="accent"><path d="M91.669 45.384V60.921H99.872V37.693H8.139V4.088A4.074 4.074 0 0 0 4.063 0C1.814 0 0 1.84 0 4.088V60.921H8.139V45.384z" fill="#364f40" data-fill-palette-color="accent"></path><path d="M20.661 20.469A7.37 7.37 0 0 0 28.033 13.084C28.033 9.021 24.737 5.725 20.661 5.725S13.288 9.021 13.288 13.084A7.37 7.37 0 0 0 20.661 20.469" fill="#364f40" data-fill-palette-color="accent"></path><path d="M100 31.585L99.975 21.44C99.949 18.22 97.241 15.997 94.097 15.614L36.185 9.838C36.07 9.813 35.968 9.761 35.866 9.761A3.633 3.633 0 0 0 32.238 13.389V24.327H17.096A3.64 3.64 0 0 0 13.442 27.956C13.442 29.975 15.065 31.585 17.096 31.585z" fill="#364f40" data-fill-palette-color="accent"></path></svg></g></svg></g></svg></g></svg></g></svg></g><defs></defs></svg><rect width="395.52" height="72.88473832385951" fill="none" stroke="none" visibility="hidden"></rect></g></svg></g></svg>