<svg xmlns="http://www.w3.org/2000/svg" version="1.1" xmlns:xlink="http://www.w3.org/1999/xlink" xmlns:svgjs="http://svgjs.dev/svgjs" width="100" height="60" viewBox="0 0 1000 600"><rect width="1000" height="600" x="0" y="0" fill="#ffffff" /><g><rect width="333.3333333333333" height="333.3333333333333" rx="13.333333333333334" ry="13.333333333333334" y="244.13481516247617" fill="#5b9cde" transform="matrix(0.5632849856222057,0,0,0.5632849856222057,0,68.6017275305953)" x="221.9126434326172" /><path d="M380.7080539421337 483.32642659705994L358.9505707640926 483.32642659705994L361.02271201914414 466.7492965566477L361.02271201914414 354.8536687838652L358.9505707640926 338.276538743453L380.7080539421337 338.276538743453L378.63591268708217 354.8536687838652L378.63591268708217 466.7492965566477L380.7080539421337 483.32642659705994ZM282.2813443271861 483.32642659705994L260.5238611491451 483.32642659705994L262.5960024041966 466.7492965566477L262.5960024041966 354.8536687838652L260.5238611491451 338.276538743453L282.2813443271861 338.276538743453L280.2092030721346 354.8536687838652L280.2092030721346 466.7492965566477L282.2813443271861 483.32642659705994ZM372.620947099502 415.5789194527364L268.4095098142023 415.5789194527364L268.4095098142023 399.40470576747305L372.620947099502 399.40470576747305L372.620947099502 415.5789194527364ZM477.4655386571786 485.8014842072604L477.4655386571786 485.8014842072604Q455.93829339636557 485.8014842072604 441.4333046110048 476.9085446543309Q426.9283158256442 467.98682536174795 419.5607024743498 451.20823714376127Q412.19308912305553 434.4296489257746 412.19308912305553 411.20439902540534L412.19308912305553 411.20439902540534Q412.19308912305553 384.89971698211235 420.7118920604896 368.32258694170014Q429.2019152582701 351.7454569012879 443.5054458660564 343.7734690172702Q457.78019673418913 335.80148113325254 475.19193922455264 335.80148113325254L475.19193922455264 335.80148113325254Q486.1857997721872 335.80148113325254 496.1148099526424 338.47799692102745Q506.07259987275114 341.1832924484558 514.994319165334 346.3636455860846L514.994319165334 346.3636455860846L514.994319165334 362.30762135412004L510.850036655231 364.37976260917156Q504.2019167952741 358.99795129396824 495.3089772423446 355.48682305624203Q486.3872579497616 351.94691507886233 474.78902286940377 351.94691507886233L474.78902286940377 351.94691507886233Q462.1547171615201 351.94691507886233 452.19692724141134 357.55896431129355Q442.2391373213027 363.1422338040713 436.540748869911 376.0931166481434Q430.84236041851926 389.04399949221545 430.84236041851926 411.20439902540534L430.84236041851926 411.20439902540534Q430.84236041851926 441.88360149602937 442.55571445749115 455.75543600901324Q454.2690684964629 469.65605026165053 477.2640804796042 469.65605026165053L477.2640804796042 469.65605026165053Q487.0204122221385 469.65605026165053 495.5967746388795 467.06587369283613Q504.2019167952741 464.47569712402174 512.49048181548 458.4607315364416L512.49048181548 458.4607315364416L516.6347643255833 460.5328727914931L516.6347643255833 476.4768485595285Q508.14474112780266 481.05282716443395 498.4171891249219 483.4415455556739Q488.66085738238763 485.8014842072604 477.4655386571786 485.8014842072604Z " fill="#000000" transform="matrix(0.5632849856222057,0,0,0.5632849856222057,0,68.6017275305953)" /><path d="M756.1468818509627 483.38031301886133L734.863097579544 483.38031301886133L736.8901246530124 467.16409643111376L736.8901246530124 357.70463446381825L734.863097579544 341.48841787607074L756.1468818509627 341.48841787607074L754.1198547774941 357.70463446381825L754.1198547774941 467.16409643111376L756.1468818509627 483.38031301886133ZM659.8630958612118 483.38031301886133L638.5793115897933 483.38031301886133L640.6063386632618 467.16409643111376L640.6063386632618 357.70463446381825L638.5793115897933 341.48841787607074L659.8630958612118 341.48841787607074L657.8360687877434 357.70463446381825L657.8360687877434 467.16409643111376L659.8630958612118 483.38031301886133ZM748.235845633676 417.1077889779627L646.2932757304926 417.1077889779627L646.2932757304926 401.28571654338964L748.235845633676 401.28571654338964L748.235845633676 417.1077889779627ZM833.7932800263229 485.8014842455042L833.7932800263229 485.8014842455042Q821.6311175855124 485.8014842455042 810.4824686814359 480.53684448524587Q799.3338197773596 475.27220472498755 792.3236844816145 463.3071143607641Q785.3417023396678 451.3420239965407 785.3417023396678 431.69112264541616L785.3417023396678 431.69112264541616Q785.3417023396678 416.68549167099013 789.3957564866046 406.3532842270607Q793.4498106335413 396.0210767831313 800.3473333140937 389.6303108709461Q807.216702840848 383.2395449587609 815.9441805182814 380.39607642514545Q824.671658195715 377.5807610453282 833.7932800263229 377.5807610453282L833.7932800263229 377.5807610453282Q842.914901856931 377.5807610453282 851.6142263805664 380.39607642514545Q860.3417040579998 383.2395449587609 867.2392267385521 389.6303108709461Q874.1085962653062 396.0210767831313 878.1626504122432 406.3532842270607Q882.21670455918 416.68549167099013 882.21670455918 431.69112264541616L882.21670455918 431.69112264541616Q882.21670455918 451.3420239965407 875.2347224172333 463.3071143607641Q868.2527402752864 475.27220472498755 857.1885508326045 480.53684448524587Q846.1525145437208 485.8014842455042 833.7932800263229 485.8014842455042ZM833.7932800263229 471.21815057805065L833.7932800263229 471.21815057805065Q848.1795416171892 471.21815057805065 856.4847219876501 462.2936008240299Q864.789902358111 453.36905107000916 864.789902358111 431.29697849224175L864.789902358111 431.29697849224175Q864.789902358111 416.4884195944029 861.0455329029542 407.98616714735476Q857.3011634477973 399.45576154650837 850.403640767245 395.8240047065441Q843.5061180866926 392.16409471278166 833.7932800263229 392.16409471278166L833.7932800263229 392.16409471278166Q824.0522888121552 392.16409471278166 817.1547661316029 395.8240047065441Q810.2572434510505 399.45576154650837 806.5128739958936 407.98616714735476Q802.7685045407366 416.4884195944029 802.7685045407366 431.29697849224175L802.7685045407366 431.29697849224175Q802.7685045407366 453.36905107000916 811.0736849111977 462.2936008240299Q819.3788652816586 471.21815057805065 833.7932800263229 471.21815057805065ZM916.6761648081435 454.38256460674336L916.6761648081435 454.38256460674336L916.6761648081435 365.41859860451757L915.6626512714092 351.2294090902385L934.7223363927721 351.2294090902385L933.7088228560381 365.41859860451757L933.7088228560381 453.98842045356895Q933.7088228560381 463.7294116677367 938.0725616947548 467.4737811228937Q942.4363005334715 471.21815057805065 950.9385529805197 471.21815057805065L950.9385529805197 471.21815057805065Q954.9926071274565 471.21815057805065 957.9486882762646 470.4017091179037Q960.8766162712745 469.5852676577566 963.523012728303 468.177609967848L963.523012728303 468.177609967848L966.7606254150928 470.20463704131646L966.7606254150928 482.7609436353015Q962.2842739611833 484.3938265555955 957.7234630458793 485.0976554005498Q953.1626521305755 485.8014842455042 948.9115259070513 485.8014842455042L948.9115259070513 485.8014842455042Q940.8034176131775 485.8014842455042 933.3991381642581 483.0706283270814Q926.0230118691368 480.33977240865863 921.3495883386402 473.554862343299Q916.6761648081435 466.7699522779394 916.6761648081435 454.38256460674336ZM909.3844979744167 394.1911217862501L899.2493626070745 395.2046353229843L899.2493626070745 380.00193227197104L912.2279665080323 380.00193227197104L925.2065704089898 386.0830134923763L938.1851743099476 380.00193227197104L964.7335983416242 380.00193227197104L964.7335983416242 395.2046353229843L954.5984629742823 394.1911217862501L909.3844979744167 394.1911217862501ZM985.398013229483 431.4940505688289L985.398013229483 431.4940505688289Q985.398013229483 411.4208519107318 991.9858512182554 399.56837416170106Q998.5736892070279 387.71589641267036 1009.3281939579299 382.6483287289993Q1020.0545455550337 377.5807610453282 1032.2167079958444 377.5807610453282L1032.2167079958444 377.5807610453282Q1046.2088254335363 377.5807610453282 1055.640131955924 383.1550854973664Q1065.0714384783118 388.7294099494046 1069.8293214702032 398.9490047781413Q1074.5872044620942 409.1967527606762 1074.5872044620942 423.3859422749552L1074.5872044620942 423.3859422749552Q1074.5872044620942 427.43999642189203 1074.19306030892 430.87468118526914Q1073.7707630019474 434.3375191024444 1073.1795467721856 437.37805971264703L1073.1795467721856 437.37805971264703L994.3225629835038 437.37805971264703L994.3225629835038 433.7181497188846L1012.5658066447197 423.58301435154243L1057.3574743376125 423.58301435154243Q1057.3574743376125 414.46139252093445 1055.443059879337 407.3667977637949Q1053.5004922672629 400.2722030066554 1048.0387804304173 396.21814885971855Q1042.577068593572 392.16409471278166 1032.019635919257 392.16409471278166L1032.019635919257 392.16409471278166Q1021.068059091768 392.16409471278166 1014.7054463333809 396.9219777046728Q1008.3146804211958 401.67986069656405 1005.583824502773 410.2102662974104Q1002.824815430552 418.7125187444585 1002.824815430552 430.0582397251221L1002.824815430552 430.0582397251221Q1002.824815430552 443.6562130096396 1005.8653560407547 451.96139338010056Q1008.9058966509574 460.26657375056146 1013.9734643346285 464.3206278974984Q1019.0410320182996 468.3746820444352 1025.1221132387047 469.810492888142Q1031.2031944591101 471.21815057805065 1037.2842756795155 471.21815057805065L1037.2842756795155 471.21815057805065Q1046.828194817096 471.21815057805065 1053.8101769590428 469.30373611977495Q1060.820312254788 467.361168507701 1066.2820240916333 464.1235558209111L1066.2820240916333 464.1235558209111L1069.5196367784233 466.15058289437957L1069.5196367784233 480.73391656183304Q1063.2414834814308 482.98616886568686 1055.640131955924 484.3938265555955Q1048.0387804304173 485.8014842455042 1039.1142306763968 485.8014842455042L1039.1142306763968 485.8014842455042Q1029.4013926160271 485.8014842455042 1019.773014017052 483.492925634054Q1010.1446354180769 481.15621386880565 1002.4306712773775 475.27220472498755Q994.7167071366782 469.38819558116944 990.0714367599799 458.74630344546017Q985.398013229483 448.10441130975084 985.398013229483 431.4940505688289ZM1134.3845031294131 467.361168507701L1137.6221158162032 469.38819558116944L1137.6221158162032 483.38031301886133Q1135.5950887427346 484.3938265555955 1132.9768454395046 485.0976554005498Q1130.3304489824764 485.8014842455042 1126.0793227589522 485.8014842455042L1126.0793227589522 485.8014842455042Q1119.9982415385468 485.8014842455042 1114.4239170865087 483.88706978722837Q1108.8495926344706 481.97265532895267 1105.189682640708 476.482790338309Q1101.5579258007438 471.0210785014634 1101.5579258007438 460.6888710575341L1101.5579258007438 460.6888710575341L1101.5579258007438 352.0176973965874L1099.5308987272754 335.80148080883987L1120.6176109221067 335.80148080883987L1118.5905838486383 352.0176973965874L1118.5905838486383 460.4636458271487Q1118.5905838486383 464.93999728105814 1120.7020703835012 467.27670904630645Q1122.8417100721624 469.5852676577566 1127.4869804488608 469.5852676577566L1127.4869804488608 469.5852676577566Q1129.7392327527145 469.5852676577566 1131.3439625192104 468.99405142799503Q1132.9768454395046 468.3746820444352 1134.3845031294131 467.361168507701L1134.3845031294131 467.361168507701ZM1222.1660366721158 485.8014842455042L1222.1660366721158 485.8014842455042Q1201.0793244772842 485.8014842455042 1186.8901349630053 477.1021597218688Q1172.700945448726 468.3746820444352 1165.493738076394 451.96139338010056Q1158.31468385786 435.5481047157658 1158.31468385786 412.8285096006405L1158.31468385786 412.8285096006405Q1158.31468385786 387.0965270291106 1166.619864228321 370.88031044136306Q1174.9250445987818 354.6640938536156 1188.9171620364739 346.86567025152175Q1202.9092794741655 339.0672466494279 1219.94193752206 339.0672466494279L1219.94193752206 339.0672466494279Q1230.6682891191638 339.0672466494279 1240.4092803333317 341.685489952658Q1250.1221183937014 344.3318864096862 1258.8495960711348 349.3994540933573L1258.8495960711348 349.3994540933573L1258.8495960711348 364.996301297545L1254.795541924198 367.0233283710134Q1248.3203165506181 361.7586886107551 1239.5928388731847 358.32400384737804Q1230.8653611957511 354.8611659302028 1219.5196402150875 354.8611659302028L1219.5196402150875 354.8611659302028Q1207.1604056976896 354.8611659302028 1197.419414483522 360.3510309208465Q1187.7065764231522 365.812742757692 1182.132251971114 378.48166196686975Q1176.5579275190757 391.15058117604747 1176.5579275190757 412.8285096006405L1176.5579275190757 412.8285096006405Q1176.5579275190757 442.8397715494926 1188.0162611149321 456.4095916802118Q1199.4464415569903 470.0075649647292 1221.9689645955284 470.0075649647292L1221.9689645955284 470.0075649647292Q1231.484730579311 470.0075649647292 1239.9025235649644 467.4737811228937Q1248.3203165506181 464.93999728105814 1256.428424844492 459.05598813724004L1256.428424844492 459.05598813724004L1260.4824789914287 461.0830152107085L1260.4824789914287 476.6798624148962Q1252.1491454671695 481.15621386880565 1242.6333794833872 483.492925634054Q1233.1176134996049 485.8014842455042 1222.1660366721158 485.8014842455042ZM1327.7685165690618 485.8014842455042L1327.7685165690618 485.8014842455042Q1315.606354128251 485.8014842455042 1304.4577052241748 480.53684448524587Q1293.309056320098 475.27220472498755 1286.3270741781514 463.3071143607641Q1279.3169388824062 451.3420239965407 1279.3169388824062 431.69112264541616L1279.3169388824062 431.69112264541616Q1279.3169388824062 416.68549167099013 1283.3709930293433 406.3532842270607Q1287.4250471762803 396.0210767831313 1294.3225698568324 389.6303108709461Q1301.2200925373847 383.2395449587609 1309.91941706102 380.39607642514545Q1318.6468947384537 377.5807610453282 1327.7685165690618 377.5807610453282L1327.7685165690618 377.5807610453282Q1336.8901383996697 377.5807610453282 1345.617616077103 380.39607642514545Q1354.3169406007385 383.2395449587609 1361.214463281291 389.6303108709461Q1368.1119859618432 396.0210767831313 1372.1660401087802 406.3532842270607Q1376.220094255717 416.68549167099013 1376.220094255717 431.69112264541616L1376.220094255717 431.69112264541616Q1376.220094255717 451.3420239965407 1369.209958959972 463.3071143607641Q1362.2279768180251 475.27220472498755 1351.1919405291414 480.53684448524587Q1340.1277510864593 485.8014842455042 1327.7685165690618 485.8014842455042ZM1327.7685165690618 471.21815057805065L1327.7685165690618 471.21815057805065Q1342.154778159928 471.21815057805065 1350.4599585303888 462.2936008240299Q1358.793292054648 453.36905107000916 1358.793292054648 431.29697849224175L1358.793292054648 431.29697849224175Q1358.793292054648 416.4884195944029 1355.0207694456926 407.98616714735476Q1351.276399990536 399.45576154650837 1344.3788773099836 395.8240047065441Q1337.5095077832293 392.16409471278166 1327.7685165690618 392.16409471278166L1327.7685165690618 392.16409471278166Q1318.027525354894 392.16409471278166 1311.1581558281398 395.8240047065441Q1304.2606331475874 399.45576154650837 1300.5162636924306 407.98616714735476Q1296.7437410834752 416.4884195944029 1296.7437410834752 431.29697849224175L1296.7437410834752 431.29697849224175Q1296.7437410834752 453.36905107000916 1305.0770746077344 462.2936008240299Q1313.3822549781953 471.21815057805065 1327.7685165690618 471.21815057805065ZM1553.387891107618 483.38031301886133L1532.3011789127866 483.38031301886133L1534.328205986255 467.16409643111376L1534.328205986255 416.29134751781567Q1534.328205986255 404.52332923017946 1527.8248274588768 398.7519327015541Q1521.3496020852972 392.9805361729287 1510.8203225647808 392.9805361729287L1510.8203225647808 392.9805361729287Q1501.4734755037873 392.9805361729287 1494.8856375150149 396.5278335514984Q1488.2977995262424 400.0751309300682 1484.0466733027185 404.52332923017946Q1479.7955470791944 408.99968068408896 1477.7685200057258 411.61792398731905L1477.7685200057258 411.61792398731905L1477.7685200057258 396.83751824327834L1498.855232200557 379.60778811879663Q1503.3034305006686 378.36904935167706 1507.2730251862108 377.9749051985026Q1511.214466717955 377.5807610453282 1514.4520794047448 377.5807610453282L1514.4520794047448 377.5807610453282Q1528.0500526892624 377.5807610453282 1536.1581609831362 382.1415719606322Q1544.26626927701 386.7023828759361 1547.8135666555797 394.1911217862501Q1551.3608640341495 401.67986069656405 1551.3608640341495 410.6044104505848L1551.3608640341495 410.6044104505848L1551.3608640341495 467.16409643111376L1553.387891107618 483.38031301886133ZM1423.658158405638 483.38031301886133L1402.5714462108067 483.38031301886133L1404.5984732842749 467.16409643111376L1404.5984732842749 396.21814885971855L1402.5714462108067 380.00193227197104L1417.7741492618197 380.00193227197104L1421.6311313321694 401.9050859269494L1421.6311313321694 467.16409643111376L1423.658158405638 483.38031301886133ZM1488.5230247566278 483.38031301886133L1467.4363125617965 483.38031301886133L1469.4633396352651 467.16409643111376L1469.4633396352651 416.29134751781567Q1469.4633396352651 404.52332923017946 1463.1851863382724 398.7519327015541Q1456.8788798874816 392.9805361729287 1446.3496003669652 392.9805361729287L1446.3496003669652 392.9805361729287Q1437.227978536357 392.9805361729287 1430.4430684709976 396.41522093630573Q1423.658158405638 399.878058853481 1419.3788790283156 404.12918507700505Q1415.1277528047917 408.3803113005291 1413.100725731323 410.80148252717197L1413.100725731323 410.80148252717197L1413.100725731323 396.83751824327834L1434.1874379261544 379.60778811879663Q1439.649149763 378.36904935167706 1444.012888601717 377.9749051985026Q1448.3766274404338 377.5807610453282 1451.417168050636 377.5807610453282L1451.417168050636 377.5807610453282Q1464.1986998750067 377.5807610453282 1471.884510861908 382.1415719606322Q1479.598475002607 386.7023828759361 1483.0331597659842 394.1911217862501Q1486.4959976831597 401.67986069656405 1486.4959976831597 410.6044104505848L1486.4959976831597 410.6044104505848L1486.4959976831597 467.16409643111376L1488.5230247566278 483.38031301886133Z " fill="#000000" transform="matrix(0.5632849856222057,0,0,0.5632849856222057,0,68.6017275305953)" /></g></svg>